<svg width="32" height="32" viewBox="0 0 32 32" fill="none" xmlns="http://www.w3.org/2000/svg">
<path d="M16.0364 0H15.9636C7.14713 0 0 7.14713 0 15.9636V16.0364C0 24.8529 7.14713 32 15.9636 32H16.0364C24.8529 32 32 24.8529 32 16.0364V15.9636C32 7.14713 24.8529 0 16.0364 0Z" fill="url(#paint0_linear_7986_77204)"/>
<path d="M20.9515 6.50977H11.0498C8.31428 6.50977 6.08887 8.73518 6.08887 11.4707V20.5293C6.08887 23.2648 8.31428 25.4903 11.0498 25.4903H20.9515C23.687 25.4903 25.9124 23.2648 25.9124 20.5293V11.4707C25.9124 8.73518 23.687 6.50977 20.9515 6.50977ZM7.83893 11.4707C7.83893 9.70046 9.27956 8.25983 11.0498 8.25983H20.9515C22.7217 8.25983 24.1624 9.70046 24.1624 11.4707V20.5293C24.1624 22.2996 22.7217 23.7402 20.9515 23.7402H11.0498C9.27956 23.7402 7.83893 22.2996 7.83893 20.5293V11.4707Z" fill="white"/>
<path d="M16.0003 20.6138C18.5441 20.6138 20.6148 18.5442 20.6148 15.9993C20.6148 13.4543 18.5452 11.3848 16.0003 11.3848C13.4553 11.3848 11.3857 13.4543 11.3857 15.9993C11.3857 18.5442 13.4553 20.6138 16.0003 20.6138ZM16.0003 13.1359C17.5799 13.1359 18.8647 14.4207 18.8647 16.0004C18.8647 17.5801 17.5799 18.8648 16.0003 18.8648C14.4206 18.8648 13.1358 17.5801 13.1358 16.0004C13.1358 14.4207 14.4206 13.1359 16.0003 13.1359Z" fill="white"/>
<path d="M21.0421 12.1309C21.7271 12.1309 22.2855 11.5736 22.2855 10.8872C22.2855 10.2009 21.7283 9.64355 21.0421 9.64355C20.356 9.64355 19.7988 10.2009 19.7988 10.8872C19.7988 11.5736 20.356 12.1309 21.0421 12.1309Z" fill="white"/>
<defs>
<linearGradient id="paint0_linear_7986_77204" x1="4.67505" y1="27.3249" x2="27.3249" y2="4.67617" gradientUnits="userSpaceOnUse">
<stop stop-color="#FAAD4F"/>
<stop offset="0.35" stop-color="#DD2A7B"/>
<stop offset="0.62" stop-color="#9537B0"/>
<stop offset="1" stop-color="#515BD4"/>
</linearGradient>
</defs>
</svg>
