<svg width="19" height="20" viewBox="0 0 19 20" fill="none" xmlns="http://www.w3.org/2000/svg">
<rect y="0.5" width="19" height="19" rx="1" fill="#D61D23"/>
<path d="M3.35303 5.01797L12.3147 5.01758V6.52993C12.1327 6.30646 11.9154 6.19522 11.6105 6.19522H8.60511V14.4127C8.60511 14.6361 8.69297 14.8404 8.94837 15.0065H6.76067C6.99841 14.8273 7.10415 14.6765 7.10415 14.4697V6.19522H4.11492C3.83303 6.19522 3.58969 6.30646 3.35303 6.52993V5.01797Z" fill="white"/>
<path d="M13.3118 8.32422C13.3669 8.32422 13.4112 8.36878 13.4114 8.42383V10.5596H15.5471C15.6022 10.5596 15.6465 10.6041 15.6467 10.6592V11.5771C15.6467 11.6324 15.6023 11.6767 15.5471 11.6768H13.4114V13.8125C13.4114 13.8677 13.367 13.9121 13.3118 13.9121H12.3938C12.3387 13.9119 12.2942 13.8676 12.2942 13.8125V11.6768H10.1584C10.1034 11.6765 10.0588 11.6322 10.0588 11.5771V10.6592C10.059 10.6042 10.1035 10.5598 10.1584 10.5596H12.2942V8.42383C12.2944 8.36889 12.3389 8.3244 12.3938 8.32422H13.3118Z" fill="white"/>
</svg>
