<svg width="19" height="20" viewBox="0 0 19 20" fill="none" xmlns="http://www.w3.org/2000/svg">
<rect y="0.5" width="19" height="19" rx="1" fill="#D61D23"/>
<path d="M10.3555 5.96875V14.5H8.60352V5.96875H10.3555ZM12.9805 5.96875V7.3457H6.01953V5.96875H12.9805Z" fill="white"/>
<path d="M4.1967 15.3033C3.53295 14.6396 3.97319 13.246 3.63534 12.4295C3.28512 11.5831 2 10.9018 2 9.99997C2 9.09816 3.28513 8.41692 3.63535 7.57049C3.97319 6.75396 3.53295 5.36045 4.1967 4.6967C4.86045 4.03295 6.25397 4.47319 7.0705 4.13534C7.91695 3.78512 8.5982 2.5 9.50003 2.5C10.4018 2.5 11.0831 3.78513 11.9295 4.13535C12.746 4.47319 14.1396 4.03295 14.8033 4.6967C15.4671 5.36045 15.0268 6.75397 15.3647 7.5705C15.7149 8.41695 17 9.0982 17 10C17 10.9018 15.7149 11.5831 15.3647 12.4295C15.0268 13.246 15.4671 14.6396 14.8033 15.3033C14.1396 15.9671 12.746 15.5268 11.9295 15.8647C11.0831 16.2149 10.4018 17.5 9.49997 17.5C8.59816 17.5 7.91692 16.2149 7.07049 15.8647C6.25396 15.5268 4.86045 15.9671 4.1967 15.3033Z" stroke="white" stroke-width="1.25" stroke-linecap="round" stroke-linejoin="round"/>
</svg>
