<svg width="20" height="20" viewBox="0 0 20 20" fill="none" xmlns="http://www.w3.org/2000/svg">
<g clip-path="url(#clip0_8986_47392)">
<path d="M14 8.25391H13.999V19.9999C11.878 19.9999 9.84202 19.1569 8.34302 17.6569C6.84302 16.1569 5.99902 14.1209 5.99902 11.9999V8.25391H6.00002V0.253906H6.00102C8.12202 0.253906 10.157 1.09691 11.657 2.59691C13.038 3.97791 13.862 5.81191 13.983 7.74991C13.995 7.91691 14 8.08491 14 8.25391Z" fill="#D72329"/>
<path d="M6 0.253906V7.99991H0C0 5.87891 0.844 3.84291 2.344 2.34291C3.362 1.32391 4.628 0.607906 6 0.253906Z" fill="#603813"/>
<path d="M20 0C20 2.121 19.157 4.157 17.657 5.657C16.634 6.68 15.362 7.398 13.983 7.75C13.862 5.812 13.038 3.978 11.657 2.597C10.157 1.097 8.12198 0.254 6.00098 0.254C6.64898 0.087 7.31998 0 7.99998 0H20Z" fill="#F8B05C"/>
</g>
<defs>
<clipPath id="clip0_8986_47392">
<rect width="20" height="20" fill="white"/>
</clipPath>
</defs>
</svg>
